<svg width="1366" height="128" viewBox="0 0 1366 128" fill="none" xmlns="http://www.w3.org/2000/svg">
<g filter="url(#filter0_d_1_27)">
<path fill-rule="evenodd" clip-rule="evenodd" d="M1366 0H0V84.9999H-1V109.654C2.07776 109.852 5.39227 110.051 8.70679 109.654C14.1524 108.972 19.7908 108.581 25.4664 108.188C33.8555 107.607 42.3258 107.02 50.375 105.478C56.5305 104.385 64.1065 104.882 70.9723 105.677C74.05 106.075 77.3646 106.274 80.6791 106.075C84.8896 105.753 88.7908 106.471 92.6326 107.179C93.5432 107.346 94.4504 107.513 95.3576 107.665C101.75 108.66 107.905 108.66 114.534 108.361C117.218 108.295 119.901 108.317 122.584 108.339C123.926 108.35 125.267 108.361 126.609 108.361C129.923 108.361 133.001 108.262 134.895 106.572C136.316 105.28 139.393 105.478 142.234 105.777C142.48 105.805 142.725 105.834 142.969 105.862C146.961 106.33 150.78 106.776 155.019 106.87C165.199 107.268 173.722 105.677 182.245 103.788C185.086 103.093 188.164 102.397 191.479 103.093C196.056 104.122 200.633 103.777 205.21 103.433C207.262 103.278 209.314 103.123 211.366 103.093C219.139 102.997 226.692 102.53 234.45 102.05L235.277 101.999C238.829 101.8 242.853 102.297 245.931 102.894C252.133 104.109 258.516 103.808 264.763 103.514C265.671 103.471 266.575 103.429 267.476 103.391C279.076 102.894 290.204 103.49 300.384 105.677C302.353 106.091 304.387 106.155 306.417 106.219C308.293 106.278 310.166 106.337 311.985 106.671C320.745 108.262 329.504 109.554 338.501 110.747C341.539 111.203 344.578 110.74 347.616 110.276C347.892 110.234 348.168 110.192 348.444 110.151C350.362 109.852 352.216 109.474 354.07 109.095C358.395 108.211 362.72 107.327 367.858 107.467C370.225 107.516 372.534 107.591 374.842 107.665C377.15 107.74 379.459 107.815 381.826 107.864C382.194 107.88 382.562 107.9 382.929 107.92C384.924 108.03 386.892 108.138 388.692 107.467C389.166 107.367 390.113 107.268 390.586 107.367C395.94 108.304 401.669 108.378 407.36 108.451C410.727 108.494 414.082 108.537 417.339 108.759C417.646 108.759 417.979 108.769 418.32 108.78C419.029 108.803 419.777 108.826 420.417 108.759C432.491 107.069 443.382 108.163 452.852 111.443C455.187 112.217 457.905 112.697 460.609 113.174C463.113 113.615 465.604 114.054 467.767 114.724C467.858 114.743 467.958 114.766 468.062 114.789C468.496 114.889 468.996 115.003 469.187 114.922C474.786 113.831 479.033 114.938 483.213 116.027C483.983 116.227 484.75 116.427 485.523 116.612C494.283 118.601 503.516 119.197 512.039 117.408C517.484 116.314 521.273 116.414 525.771 117.507C530.071 118.523 534.829 118.738 539.568 118.952C543.178 119.115 546.778 119.278 550.156 119.793C552.606 120.189 554.606 119.64 556.395 119.149C556.853 119.023 557.298 118.901 557.732 118.799C564.598 116.911 572.411 116.215 580.46 116.016C583.065 116.016 585.195 115.618 586.853 114.823C591.351 112.835 596.559 112.238 602.241 113.332C602.607 113.393 602.971 113.456 603.334 113.518C607.673 114.264 611.858 114.983 616.446 113.332C617.768 112.777 619.909 113.168 621.536 113.466C621.657 113.488 621.776 113.51 621.892 113.531C628.284 114.525 634.913 114.922 641.542 114.624C644.11 114.504 646.506 114.096 648.937 113.681C650.541 113.408 652.159 113.132 653.853 112.934C657.168 112.537 660.009 112.537 663.56 113.133C677.055 115.618 691.023 117.507 705.938 117.706C709.963 117.805 713.514 118.004 717.302 118.601C722.325 119.479 727.163 118.804 731.816 118.155C732.427 118.07 733.034 117.985 733.638 117.905C734.19 117.838 734.717 117.728 735.243 117.618C736.295 117.397 737.347 117.176 738.61 117.308C744.943 117.883 751.028 117.263 757.045 116.65C759.351 116.415 761.647 116.181 763.942 116.016C765.363 115.916 766.547 115.916 767.967 115.916C771.518 116.016 774.833 115.817 778.384 115.121C784.566 113.9 791.167 113.265 797.757 112.63C799.748 112.439 801.739 112.247 803.716 112.039C806.84 111.763 809.164 112.062 811.562 112.371C812.617 112.507 813.686 112.644 814.844 112.735C819.852 113.072 824.86 112.625 829.868 112.179C830.779 112.098 831.689 112.017 832.6 111.94C833.299 111.867 833.998 111.79 834.697 111.714C839.683 111.169 844.692 110.622 849.883 111.145C851.067 111.244 852.487 111.244 853.434 111.045C862.904 108.759 873.321 108.461 883.975 108.262C885.496 108.262 886.727 107.825 888.041 107.359C889.387 106.882 890.818 106.374 892.735 106.274C893.319 106.274 893.903 106.206 894.471 106.141C895.284 106.048 896.063 105.958 896.76 106.075C900.232 106.648 903.835 106.62 907.431 106.593C910.7 106.568 913.964 106.544 917.12 106.97C924.227 107.898 931.439 107.765 938.616 107.632C942.198 107.566 945.771 107.5 949.318 107.566C949.871 107.599 950.397 107.599 950.905 107.599C951.922 107.599 952.87 107.599 953.817 107.864C957.605 108.858 961.156 109.256 964.234 107.367C965.181 106.771 967.311 106.473 968.969 106.87C972.52 107.566 976.071 107.367 979.622 107.168C979.851 107.168 980.104 107.148 980.366 107.127C980.918 107.082 981.508 107.034 981.99 107.168C986.607 108.59 992.024 108.836 997.396 109.079C1000.29 109.21 1003.17 109.341 1005.9 109.654C1014.9 110.747 1023.89 110.747 1033.13 110.35C1035.62 110.254 1038.11 110.455 1040.62 110.657C1043.37 110.878 1046.15 111.102 1048.99 110.946C1052.9 110.747 1056.86 110.623 1060.83 110.499C1064.79 110.374 1068.76 110.25 1072.67 110.051C1075.98 109.952 1078.58 109.952 1081.66 110.648C1085.92 111.741 1090.66 112.238 1095.63 111.841C1097.76 111.642 1099.66 111.443 1101.08 110.648C1104.15 109.057 1108.18 108.56 1112.68 108.66C1115.4 108.709 1118.12 108.809 1120.84 108.908C1123.57 109.007 1126.29 109.107 1129.01 109.157C1131.14 109.157 1133.04 109.355 1134.69 109.952C1136.61 110.668 1138.91 110.578 1141.42 110.481C1141.7 110.47 1141.99 110.459 1142.27 110.449C1150.08 110.151 1156.95 109.654 1161.21 106.373C1161.92 105.777 1165.71 105.478 1167.84 105.578C1173.89 105.952 1179.81 105.651 1185.7 105.352C1187.64 105.253 1189.58 105.155 1191.51 105.081C1193.07 105.024 1194.63 105 1196.18 104.975C1200.07 104.914 1203.96 104.854 1207.85 104.286C1209.74 103.987 1212.35 103.987 1214.01 104.385C1221.89 106.356 1229.78 105.513 1237.54 104.684C1239.57 104.467 1241.59 104.251 1243.6 104.087C1250.94 103.49 1257.57 103.49 1263.96 104.981C1268.22 105.975 1272.25 106.373 1276.98 105.876L1278.33 105.738C1286.68 104.882 1295.42 103.987 1303.73 103.987C1309.04 103.987 1313.47 103.299 1317.92 102.609C1320.03 102.283 1322.13 101.956 1324.33 101.701C1330.49 101.005 1335.22 101.9 1339.72 103.291C1342.32 104.087 1344.93 104.484 1348.24 104.683C1352.53 104.891 1356.6 105.437 1360.67 105.984C1362.44 106.222 1364.21 106.461 1366 106.671V92.5147V84.9999V0Z" fill="white"/>
</g>
<defs>
<filter id="filter0_d_1_27" x="-5" y="0" width="1375" height="127.929" filterUnits="userSpaceOnUse" color-interpolation-filters="sRGB">
<feFlood flood-opacity="0" result="BackgroundImageFix"/>
<feColorMatrix in="SourceAlpha" type="matrix" values="0 0 0 0 0 0 0 0 0 0 0 0 0 0 0 0 0 0 127 0" result="hardAlpha"/>
<feOffset dy="4"/>
<feGaussianBlur stdDeviation="2"/>
<feColorMatrix type="matrix" values="0 0 0 0 0 0 0 0 0 0 0 0 0 0 0 0 0 0 0.25 0"/>
<feBlend mode="normal" in2="BackgroundImageFix" result="effect1_dropShadow_1_27"/>
<feBlend mode="normal" in="SourceGraphic" in2="effect1_dropShadow_1_27" result="shape"/>
</filter>
</defs>
</svg>
